<?xml version="1.0" encoding="utf-8"?>
<!-- Generator: Adobe Illustrator 27.5.0, SVG Export Plug-In . SVG Version: 6.00 Build 0)  -->
<svg version="1.1" xmlns="http://www.w3.org/2000/svg" xmlns:xlink="http://www.w3.org/1999/xlink" x="0px" y="0px"
	 viewBox="0 0 2200 2200" style="enable-background:new 0 0 2200 2200;" xml:space="preserve">
<g id="background">
	<rect style="fill:#FFFFFF;" width="2200" height="2200"/>
</g>
<g id="Objects">
	<g>
		<g>
			<path style="fill:#70C934;" d="M1314.716,794.112c-24.776,16.861-50.806,31.518-77.728,43.63
				c-47.465,21.376-97.321,35.341-150.098,50.115c-64.865,18.174-131.935,36.947-194.256,70.728
				c-44.991,24.377-87.062,56.986-123.715,95.68c87.144-141.655,86.616-225.985,60.984-350.345
				c-1.501,117.841-37.932,235.025-103.477,332.956c-45.46,67.879-104.79,127.245-138.091,201.842
				c-43.994,98.482-36.724,215.655,7.715,313.938c25.855,57.162,63.364,108.203,108.144,152.267
				c-106.596-46.527-198.524-131.231-253-234.943c-62.45-118.943-74.75-261.126-33.054-382.848
				c39.468-115.238,122.871-208.08,170.535-319.742c43.032-100.792,55.508-216.03,35.458-327.48
				c138.876-40.054,297.158-20.015,428.519,54.242C1170.036,560.506,1264.531,669.365,1314.716,794.112z"/>
		</g>
		<g>
			<path style="fill:#199942;" d="M1748.583,1425.405c-75.406,157.473-219.723,271.538-379.131,321.782
				c-159.396,50.255-332.288,40.242-491.965-9.005c-26.312-8.126-52.917-17.881-78.631-29.654
				c-88.41-420.029,238.121-466.134,367.277-499.235c178.25-45.694,237.253-108.742,305.753-222.772
				c-80.929,85.666-187.103,147.201-301.661,174.838c-79.417,19.148-163.277,22.63-238.308,54.946
				c-99.068,42.657-173.091,133.776-206.978,236.174c-19.699,59.565-26.675,122.519-23.58,185.274
				c-46.902-106.432-57.15-231.015-26.969-344.213c34.614-129.801,121.886-242.729,235.002-304.03
				c107.1-58.041,231.343-69.837,342.043-119.693c99.924-45.002,187.162-121.323,247.911-216.898
				c129.297,64.607,232.152,186.564,278.491,330.177S1813.366,1290.082,1748.583,1425.405z"/>
		</g>
	</g>
</g>
</svg>
